<mxfile host="app.diagrams.net" agent="Mozilla/5.0 (Windows NT 10.0; Win64; x64) AppleWebKit/537.36 (KHTML, like Gecko) Chrome/132.0.0.0 Safari/537.36" version="26.0.10">
  <diagram id="vZv2f6N4h2fVlUgS8-mH" name="Page-1">
    <mxGraphModel dx="2391" dy="1174" grid="1" gridSize="10" guides="1" tooltips="1" connect="1" arrows="1" fold="1" page="1" pageScale="1" pageWidth="827" pageHeight="1169" math="0" shadow="0">
      <root>
        <mxCell id="0" />
        <mxCell id="1" parent="0" />
        <mxCell id="kLyqMJTa60GXJmwrMO6C-2" value="Classname" style="swimlane;fontStyle=1;align=center;verticalAlign=top;childLayout=stackLayout;horizontal=1;startSize=26;horizontalStack=0;resizeParent=1;resizeParentMax=0;resizeLast=0;collapsible=1;marginBottom=0;" parent="1" vertex="1">
          <mxGeometry x="343" y="177" width="167" height="86" as="geometry" />
        </mxCell>
        <mxCell id="kLyqMJTa60GXJmwrMO6C-3" value="+ field: type" style="text;strokeColor=none;fillColor=none;align=left;verticalAlign=top;spacingLeft=4;spacingRight=4;overflow=hidden;rotatable=0;points=[[0,0.5],[1,0.5]];portConstraint=eastwest;" parent="kLyqMJTa60GXJmwrMO6C-2" vertex="1">
          <mxGeometry y="26" width="167" height="26" as="geometry" />
        </mxCell>
        <mxCell id="kLyqMJTa60GXJmwrMO6C-4" value="" style="line;strokeWidth=1;fillColor=none;align=left;verticalAlign=middle;spacingTop=-1;spacingLeft=3;spacingRight=3;rotatable=0;labelPosition=right;points=[];portConstraint=eastwest;" parent="kLyqMJTa60GXJmwrMO6C-2" vertex="1">
          <mxGeometry y="52" width="167" height="8" as="geometry" />
        </mxCell>
        <mxCell id="kLyqMJTa60GXJmwrMO6C-5" value="+ method(type): type" style="text;strokeColor=none;fillColor=none;align=left;verticalAlign=top;spacingLeft=4;spacingRight=4;overflow=hidden;rotatable=0;points=[[0,0.5],[1,0.5]];portConstraint=eastwest;" parent="kLyqMJTa60GXJmwrMO6C-2" vertex="1">
          <mxGeometry y="60" width="167" height="26" as="geometry" />
        </mxCell>
        <mxCell id="kLyqMJTa60GXJmwrMO6C-31" value="" style="endArrow=block;endSize=16;endFill=0;html=1;" parent="1" edge="1">
          <mxGeometry width="160" relative="1" as="geometry">
            <mxPoint x="73" y="120" as="sourcePoint" />
            <mxPoint x="233" y="120" as="targetPoint" />
          </mxGeometry>
        </mxCell>
        <mxCell id="kLyqMJTa60GXJmwrMO6C-33" value="" style="endArrow=open;endFill=1;endSize=12;html=1;" parent="1" edge="1">
          <mxGeometry width="160" relative="1" as="geometry">
            <mxPoint x="73" y="222.17000000000007" as="sourcePoint" />
            <mxPoint x="233" y="222.17000000000007" as="targetPoint" />
            <Array as="points">
              <mxPoint x="233" y="222.17000000000007" />
            </Array>
          </mxGeometry>
        </mxCell>
        <mxCell id="kLyqMJTa60GXJmwrMO6C-36" value="" style="endArrow=none;html=1;edgeStyle=orthogonalEdgeStyle;" parent="1" edge="1">
          <mxGeometry relative="1" as="geometry">
            <mxPoint x="70" y="262.1700000000001" as="sourcePoint" />
            <mxPoint x="230" y="262.1700000000001" as="targetPoint" />
          </mxGeometry>
        </mxCell>
        <mxCell id="kLyqMJTa60GXJmwrMO6C-37" value="*" style="edgeLabel;resizable=0;html=1;align=left;verticalAlign=bottom;" parent="kLyqMJTa60GXJmwrMO6C-36" connectable="0" vertex="1">
          <mxGeometry x="-1" relative="1" as="geometry" />
        </mxCell>
        <mxCell id="kLyqMJTa60GXJmwrMO6C-38" value="2" style="edgeLabel;resizable=0;html=1;align=right;verticalAlign=bottom;" parent="kLyqMJTa60GXJmwrMO6C-36" connectable="0" vertex="1">
          <mxGeometry x="1" relative="1" as="geometry" />
        </mxCell>
        <mxCell id="I8hlowipct-D2tbEc6_7-12" value="1" style="endArrow=open;html=1;endSize=12;startArrow=diamondThin;startSize=14;startFill=0;edgeStyle=orthogonalEdgeStyle;align=left;verticalAlign=bottom;" parent="1" edge="1">
          <mxGeometry x="0.875" y="10" relative="1" as="geometry">
            <mxPoint x="73" y="177" as="sourcePoint" />
            <mxPoint x="233" y="177" as="targetPoint" />
            <mxPoint as="offset" />
          </mxGeometry>
        </mxCell>
        <mxCell id="svodaLwBF_DBIOyZibOC-1" value="" style="endArrow=block;dashed=1;endFill=0;endSize=12;html=1;" parent="1" edge="1">
          <mxGeometry width="160" relative="1" as="geometry">
            <mxPoint x="73" y="70" as="sourcePoint" />
            <mxPoint x="233" y="70" as="targetPoint" />
          </mxGeometry>
        </mxCell>
        <mxCell id="reWRQmKxyJkvaZW5Zuav-18" value="&lt;p style=&quot;margin:0px;margin-top:4px;text-align:center;&quot;&gt;&lt;i&gt;&amp;lt;&amp;lt;Interface&amp;gt;&amp;gt;&lt;/i&gt;&lt;br/&gt;&lt;b&gt;Interface&lt;/b&gt;&lt;/p&gt;&lt;hr size=&quot;1&quot; style=&quot;border-style:solid;&quot;/&gt;&lt;p style=&quot;margin:0px;margin-left:4px;&quot;&gt;+ field1: Type&lt;br/&gt;+ field2: Type&lt;/p&gt;&lt;hr size=&quot;1&quot; style=&quot;border-style:solid;&quot;/&gt;&lt;p style=&quot;margin:0px;margin-left:4px;&quot;&gt;+ method1(Type): Type&lt;br/&gt;+ method2(Type, Type): Type&lt;/p&gt;" style="verticalAlign=top;align=left;overflow=fill;html=1;whiteSpace=wrap;" parent="1" vertex="1">
          <mxGeometry x="332" y="20" width="190" height="140" as="geometry" />
        </mxCell>
      </root>
    </mxGraphModel>
  </diagram>
</mxfile>
